<?xml version="1.0" standalone="no"?>
<!DOCTYPE svg PUBLIC "-//W3C//DTD SVG 20010904//EN"
 "http://www.w3.org/TR/2001/REC-SVG-20010904/DTD/svg10.dtd">
<svg version="1.0" xmlns="http://www.w3.org/2000/svg"
 width="260.000000pt" height="260.000000pt" viewBox="0 0 260.000000 260.000000"
 preserveAspectRatio="xMidYMid meet">
<metadata>
Created by potrace 1.11, written by Peter Selinger 2001-2013
</metadata>
<g transform="translate(0.000000,260.000000) scale(0.100000,-0.100000)"
fill="#000000" stroke="none">
<path d="M980 1862 l0 -249 318 1 317 1 3 248 2 247 -320 0 -320 0 0 -248z"/>
<path d="M619 1541 c-1 -3 -2 -115 -3 -248 l-1 -243 685 0 685 0 0 245 c0 135
-2 246 -5 246 -17 5 -1360 4 -1361 0z"/>
<path d="M200 718 l0 -248 1100 0 1100 0 0 248 0 248 -1100 1 -1100 0 0 -249z"/>
</g>
</svg>
